<svg width="25" height="25" viewBox="0 0 25 25" fill="none" xmlns="http://www.w3.org/2000/svg">
<path d="M20.1458 15.0939L19.1041 13.3647C18.8854 12.9793 18.6875 12.2502 18.6875 11.8231V9.18766C18.6875 6.73975 17.25 4.62516 15.1771 3.63558C14.6354 2.67725 13.6354 2.0835 12.4896 2.0835C11.3541 2.0835 10.3334 2.69808 9.79169 3.66683C7.76044 4.67725 6.35419 6.771 6.35419 9.18766V11.8231C6.35419 12.2502 6.15627 12.9793 5.93752 13.3543L4.88544 15.0939C4.46877 15.7918 4.37502 16.5627 4.63544 17.271C4.88544 17.9689 5.47919 18.5106 6.25002 18.771C8.27086 19.4585 10.3959 19.7918 12.5208 19.7918C14.6458 19.7918 16.7708 19.4585 18.7916 18.7814C19.5208 18.5418 20.0833 17.9897 20.3541 17.271C20.625 16.5522 20.5521 15.7606 20.1458 15.0939Z" fill="#292D32"/>
<path d="M15.4477 20.8439C15.0102 22.0522 13.8539 22.9168 12.4998 22.9168C11.6768 22.9168 10.8643 22.5835 10.2914 21.9897C9.95809 21.6772 9.70809 21.2606 9.56226 20.8335C9.69767 20.8543 9.83309 20.8647 9.97892 20.8856C10.2185 20.9168 10.4685 20.9481 10.7185 20.9689C11.3123 21.021 11.9164 21.0522 12.5206 21.0522C13.1143 21.0522 13.7081 21.021 14.2914 20.9689C14.5102 20.9481 14.7289 20.9377 14.9373 20.9064C15.1039 20.8856 15.2706 20.8647 15.4477 20.8439Z" fill="#292D32"/>
</svg>
