<svg preserveAspectRatio="none" width="100%" height="100%" overflow="visible" style="display: block;" viewBox="0 0 35 35" fill="none" xmlns="http://www.w3.org/2000/svg">
<g id="Button" filter="url(#filter0_i_42_38)">
<rect width="35" height="35" rx="10" fill="url(#paint0_linear_42_38)"/>
<path id="Vector" fill-rule="evenodd" clip-rule="evenodd" d="M22.5 8H12.5C8.9645 8 7.19675 8 6.09838 9.12973C5 10.2595 5 12.0777 5 15.7143V18.2857C5 21.9222 5 23.7405 6.09838 24.8702C7.19675 26 8.9645 26 12.5 26H22.5C26.0355 26 27.8033 26 28.9017 24.8702C30 23.7405 30 21.9222 30 18.2857V15.7143C30 12.0777 30 10.2595 28.9017 9.12973C27.8033 8 26.0355 8 22.5 8ZM25 14.4286C24.3096 14.4286 23.75 13.8529 23.75 13.1429C23.75 12.4328 24.3096 11.8571 25 11.8571C25.6904 11.8571 26.25 12.4328 26.25 13.1429C26.25 13.8529 25.6904 14.4286 25 14.4286ZM25 18.2857C24.3096 18.2857 23.75 17.7101 23.75 17C23.75 16.2899 24.3096 15.7143 25 15.7143C25.6904 15.7143 26.25 16.2899 26.25 17C26.25 17.7101 25.6904 18.2857 25 18.2857ZM21.25 18.2857C20.5596 18.2857 20 17.7101 20 17C20 16.2899 20.5596 15.7143 21.25 15.7143C21.9404 15.7143 22.5 16.2899 22.5 17C22.5 17.7101 21.9404 18.2857 21.25 18.2857ZM21.25 14.4286C20.5596 14.4286 20 13.8529 20 13.1429C20 12.4328 20.5596 11.8571 21.25 11.8571C21.9404 11.8571 22.5 12.4328 22.5 13.1429C22.5 13.8529 21.9404 14.4286 21.25 14.4286ZM17.5 14.4286C16.8096 14.4286 16.25 13.8529 16.25 13.1429C16.25 12.4328 16.8096 11.8571 17.5 11.8571C18.1904 11.8571 18.75 12.4328 18.75 13.1429C18.75 13.8529 18.1904 14.4286 17.5 14.4286ZM17.5 18.2857C16.8096 18.2857 16.25 17.7101 16.25 17C16.25 16.2899 16.8096 15.7143 17.5 15.7143C18.1904 15.7143 18.75 16.2899 18.75 17C18.75 17.7101 18.1904 18.2857 17.5 18.2857ZM13.75 14.4286C13.0596 14.4286 12.5 13.8529 12.5 13.1429C12.5 12.4328 13.0596 11.8571 13.75 11.8571C14.4404 11.8571 15 12.4328 15 13.1429C15 13.8529 14.4404 14.4286 13.75 14.4286ZM13.75 18.2857C13.0596 18.2857 12.5 17.7101 12.5 17C12.5 16.2899 13.0596 15.7143 13.75 15.7143C14.4404 15.7143 15 16.2899 15 17C15 17.7101 14.4404 18.2857 13.75 18.2857ZM10 14.4286C9.30963 14.4286 8.75 13.8529 8.75 13.1429C8.75 12.4328 9.30963 11.8571 10 11.8571C10.6904 11.8571 11.25 12.4328 11.25 13.1429C11.25 13.8529 10.6904 14.4286 10 14.4286ZM10 18.2857C9.30963 18.2857 8.75 17.7101 8.75 17C8.75 16.2899 9.30963 15.7143 10 15.7143C10.6904 15.7143 11.25 16.2899 11.25 17C11.25 17.7101 10.6904 18.2857 10 18.2857ZM10.3125 22.1429C10.3125 22.6754 10.7322 23.1071 11.25 23.1071H23.75C24.2678 23.1071 24.6875 22.6754 24.6875 22.1429C24.6875 21.6103 24.2678 21.1786 23.75 21.1786H11.25C10.7322 21.1786 10.3125 21.6103 10.3125 22.1429Z" fill="var(--fill-0, #4F6280)"/>
</g>
<defs>
<filter id="filter0_i_42_38" x="0" y="-1" width="35" height="36" filterUnits="userSpaceOnUse" color-interpolation-filters="sRGB">
<feFlood flood-opacity="0" result="BackgroundImageFix"/>
<feBlend mode="normal" in="SourceGraphic" in2="BackgroundImageFix" result="shape"/>
<feColorMatrix in="SourceAlpha" type="matrix" values="0 0 0 0 0 0 0 0 0 0 0 0 0 0 0 0 0 0 127 0" result="hardAlpha"/>
<feOffset dy="-3"/>
<feGaussianBlur stdDeviation="0.5"/>
<feComposite in2="hardAlpha" operator="arithmetic" k2="-1" k3="1"/>
<feColorMatrix type="matrix" values="0 0 0 0 0 0 0 0 0 0 0 0 0 0 0 0 0 0 0.25 0"/>
<feBlend mode="normal" in2="shape" result="effect1_innerShadow_42_38"/>
</filter>
<linearGradient id="paint0_linear_42_38" x1="0" y1="17.5" x2="35" y2="17.5" gradientUnits="userSpaceOnUse">
<stop stop-color="#F9F5EB"/>
<stop offset="1" stop-color="#E9D9C6"/>
</linearGradient>
</defs>
</svg>
