<svg preserveAspectRatio="none" width="100%" height="100%" overflow="visible" style="display: block;" viewBox="0 0 21 25" fill="none" xmlns="http://www.w3.org/2000/svg">
<g id="pause_svgrepo.com">
<path id="Vector" d="M3.885 18.825C3.885 19.2583 4.011 19.625 4.263 19.925C4.515 20.225 4.83 20.3833 5.208 20.4H7.854C8.218 20.4 8.533 20.2417 8.799 19.925C9.065 19.6083 9.191 19.2417 9.177 18.825V6.2C9.177 5.76667 9.051 5.39167 8.799 5.075C8.547 4.75833 8.232 4.60833 7.854 4.625H5.208C4.844 4.625 4.529 4.775 4.263 5.075C3.997 5.375 3.871 5.75 3.885 6.2V18.825ZM11.823 18.825C11.823 19.2583 11.956 19.625 12.222 19.925C12.488 20.225 12.796 20.3833 13.146 20.4H15.792C16.156 20.4 16.471 20.2417 16.737 19.925C17.003 19.6083 17.129 19.2417 17.115 18.825V6.2C17.115 5.76667 16.989 5.39167 16.737 5.075C16.485 4.75833 16.17 4.60833 15.792 4.625H13.146C12.782 4.625 12.474 4.775 12.222 5.075C11.97 5.375 11.837 5.75 11.823 6.2V18.825Z" fill="var(--fill-0, #4F6280)"/>
</g>
</svg>
