<svg preserveAspectRatio="none" width="100%" height="100%" overflow="visible" style="display: block;" viewBox="0 0 20 20" fill="none" xmlns="http://www.w3.org/2000/svg">
<g id="Group 1171275969">
<path id="Vector" d="M7.00001 7.9999L10.2581 10.4435C10.6766 10.7573 11.2662 10.6956 11.6107 10.302L18 2.9999" stroke="var(--stroke-0, #00B521)" stroke-width="2" stroke-linecap="round"/>
<path id="Vector_2" d="M19 10C19 11.8805 18.411 13.7137 17.3156 15.2423C16.2203 16.7709 14.6736 17.9179 12.893 18.5224C11.1123 19.1268 9.18701 19.1583 7.38745 18.6125C5.58793 18.0666 4.00459 16.9707 2.85982 15.4789C1.71505 13.987 1.06635 12.174 1.00482 10.2945C0.943291 8.41501 1.47203 6.56345 2.51677 4.99988C3.56152 3.4363 5.0698 2.23925 6.82976 1.57685C8.58971 0.914442 10.513 0.819962 12.3294 1.30667" stroke="var(--stroke-0, #00B521)" stroke-width="2" stroke-linecap="round"/>
</g>
</svg>
