<svg preserveAspectRatio="none" width="100%" height="100%" overflow="visible" style="display: block;" viewBox="0 0 19 17.8125" fill="none" xmlns="http://www.w3.org/2000/svg">
<g id="Group">
<path id="Vector" d="M17.8125 2.375H14.7416L12.7146 0.347937C12.4919 0.125281 12.1903 0 11.875 0H7.125C6.80972 0 6.50809 0.125281 6.28544 0.347937L4.25837 2.375H1.1875C0.531109 2.375 0 2.90611 0 3.5625V16.625C0 17.2814 0.531109 17.8125 1.1875 17.8125H17.8125C18.4689 17.8125 19 17.2814 19 16.625V3.5625C19 2.90611 18.4689 2.375 17.8125 2.375ZM9.5 14.25C6.87681 14.25 4.75 12.1232 4.75 9.5C4.75 6.87681 6.87681 4.75 9.5 4.75C12.1232 4.75 14.25 6.87681 14.25 9.5C14.25 12.1232 12.1232 14.25 9.5 14.25Z" fill="var(--fill-0, #4F6280)"/>
<path id="Vector_2" d="M9.5 11.875C10.8117 11.875 11.875 10.8117 11.875 9.5C11.875 8.18832 10.8117 7.125 9.5 7.125C8.18832 7.125 7.125 8.18832 7.125 9.5C7.125 10.8117 8.18832 11.875 9.5 11.875Z" fill="var(--fill-0, #4F6280)"/>
</g>
</svg>
