<svg preserveAspectRatio="none" width="100%" height="100%" overflow="visible" style="display: block;" viewBox="0 0 16 18.8235" fill="none" xmlns="http://www.w3.org/2000/svg">
<g id="Group 1171275970">
<path id="Vector" fill-rule="evenodd" clip-rule="evenodd" d="M0.685714 6.42716C1.06442 6.42716 1.37143 6.7355 1.37143 7.11584V8.03408C1.37143 11.7108 4.33915 14.6913 8 14.6913C11.6609 14.6913 14.6286 11.7108 14.6286 8.03408V7.11584C14.6286 6.7355 14.9356 6.42716 15.3143 6.42716C15.693 6.42716 16 6.7355 16 7.11584V8.03408C16 12.2394 12.783 15.6903 8.68571 16.0396V18.1347C8.68571 18.5151 8.3787 18.8234 8 18.8234C7.6213 18.8234 7.31429 18.5151 7.31429 18.1347V16.0396C3.21701 15.6903 0 12.2394 0 8.03408V7.11584C0 6.7355 0.307008 6.42716 0.685714 6.42716Z" fill="var(--fill-0, #1C274C)"/>
<path id="Vector_2" fill-rule="evenodd" clip-rule="evenodd" d="M8.00002 0C5.09658 0 2.74288 2.36388 2.74288 5.27989V8.03461C2.74288 10.9506 5.09658 13.3145 8.00002 13.3145C10.9034 13.3145 13.2572 10.9506 13.2572 8.03461V5.27989C13.2572 2.36388 10.9034 0 8.00002 0ZM9.82859 8.72329C10.2073 8.72329 10.5143 8.41495 10.5143 8.03461C10.5143 7.65427 10.2073 7.34593 9.82859 7.34593H6.17145C5.79274 7.34593 5.48573 7.65427 5.48573 8.03461C5.48573 8.41495 5.79274 8.72329 6.17145 8.72329H9.82859ZM9.60002 5.27989C9.60002 5.66023 9.293 5.96857 8.91431 5.96857H7.08573C6.70704 5.96857 6.40002 5.66023 6.40002 5.27989C6.40002 4.89954 6.70704 4.59121 7.08573 4.59121H8.91431C9.293 4.59121 9.60002 4.89954 9.60002 5.27989Z" fill="var(--fill-0, #1C274C)"/>
</g>
</svg>
