<svg preserveAspectRatio="none" width="100%" height="100%" overflow="visible" style="display: block;" viewBox="0 0 25 25" fill="none" xmlns="http://www.w3.org/2000/svg">
<g id="notification_svgrepo.com">
<path id="Vector" d="M20.1457 15.0938L19.1041 13.3646C18.8853 12.9792 18.6874 12.25 18.6874 11.8229V9.1875C18.6874 6.73958 17.2499 4.625 15.177 3.63542C14.6353 2.67708 13.6353 2.08333 12.4895 2.08333C11.3541 2.08333 10.3333 2.69792 9.7916 3.66667C7.76035 4.67708 6.3541 6.77083 6.3541 9.1875V11.8229C6.3541 12.25 6.15619 12.9792 5.93744 13.3542L4.88535 15.0938C4.46869 15.7917 4.37494 16.5625 4.63535 17.2708C4.88535 17.9688 5.4791 18.5104 6.24994 18.7708C8.27077 19.4583 10.3958 19.7917 12.5207 19.7917C14.6457 19.7917 16.7707 19.4583 18.7916 18.7813C19.5207 18.5417 20.0832 17.9896 20.3541 17.2708C20.6249 16.5521 20.552 15.7604 20.1457 15.0938Z" fill="var(--fill-0, #292D32)"/>
<path id="Vector_2" d="M15.4476 20.8437C15.0101 22.0521 13.8539 22.9167 12.4997 22.9167C11.6768 22.9167 10.8643 22.5833 10.2913 21.9896C9.95801 21.6771 9.70801 21.2604 9.56218 20.8333C9.69759 20.8542 9.83301 20.8646 9.97884 20.8854C10.2184 20.9167 10.4684 20.9479 10.7184 20.9687C11.3122 21.0208 11.9164 21.0521 12.5205 21.0521C13.1143 21.0521 13.708 21.0208 14.2914 20.9687C14.5101 20.9479 14.7289 20.9375 14.9372 20.9062C15.1039 20.8854 15.2705 20.8646 15.4476 20.8437Z" fill="var(--fill-0, #292D32)"/>
</g>
</svg>
